<svg width="550" height="79" viewBox="0 0 550 79" fill="none" xmlns="http://www.w3.org/2000/svg">
<path d="M309.955 52.5C310.406 55.753 311.451 58.4659 313.093 60.6377C315.391 63.5977 318.751 65.078 323.173 65.0781C327.735 65.0781 331.129 63.5461 333.358 60.4814C334.976 58.266 336.016 55.606 336.477 52.5H351.602C351.171 56.7642 350.016 60.6263 348.139 64.085C345.736 68.5423 342.376 72.0412 338.058 74.583C333.775 77.0903 328.814 78.3447 323.173 78.3447C317.498 78.3447 312.518 77.0739 308.236 74.5322C303.953 71.9904 300.61 68.4894 298.208 64.0332C296.388 60.5791 295.266 56.7354 294.845 52.5H309.955ZM523.318 18.8027C529.237 18.8027 534.269 20.1952 538.413 22.9805C542.556 25.7658 545.621 29.6834 547.605 34.7324C549.59 39.7816 550.286 45.7185 549.694 52.543H510.086C510.53 55.9281 511.581 58.6793 513.239 60.7959C515.536 63.6499 518.897 65.078 523.318 65.0781C526.104 65.0781 528.49 64.4692 530.474 63.25C532.459 62.0308 533.974 60.2727 535.018 57.9746L549.224 62.0488C547.1 67.2012 543.74 71.206 539.144 74.0615C534.583 76.9159 529.586 78.3447 524.154 78.3447C518.374 78.3447 513.273 77.1083 508.851 74.6367C504.464 72.1294 501.017 68.6985 498.509 64.3457C496.515 60.8054 495.324 56.8573 494.939 52.5H505.456V41.9932H505.457V52.5H510.436V41.9932L510.435 41.9766H495.443C496.036 38.7867 497.041 35.8665 498.458 33.2178C500.895 28.656 504.255 25.1225 508.538 22.6152C512.82 20.0736 517.747 18.8028 523.318 18.8027ZM138.788 52.5H147.742L148.01 52.749C148.623 53.3335 149.134 53.9436 149.544 54.5801C150.832 56.5301 151.476 58.95 151.476 61.8398C151.476 66.9579 149.561 70.9799 145.731 73.9043C141.901 76.7942 136.643 78.2402 129.958 78.2402C123.586 78.2402 118.293 76.9159 114.08 74.2695C109.866 71.5887 107.255 67.898 106.246 63.1982L110.737 62.3613C111.677 65.8431 113.871 68.6297 117.318 70.7188C120.8 72.8078 125.048 73.8525 130.062 73.8525C135.18 73.8525 139.237 72.7551 142.231 70.5615C145.261 68.3679 146.775 65.3919 146.775 61.6309C146.775 59.5763 146.323 57.9053 145.418 56.6172C144.513 55.2934 142.736 54.0928 140.089 53.0127C139.685 52.8461 139.251 52.6746 138.787 52.5H138.788ZM380.83 52.5C380.832 54.504 380.85 56.3291 380.882 57.9746C380.952 59.7154 381.318 61.1079 381.979 62.1523C383.233 64.1379 385.234 65.2169 387.985 65.3916C390.736 65.5651 393.783 65.4264 397.126 64.9736V76.7773C393.226 77.5093 389.395 77.8214 385.634 77.7168C381.909 77.6478 378.566 77.0032 375.607 75.7852C372.682 74.5315 370.453 72.529 368.921 69.7793C367.529 67.2019 366.798 64.5907 366.728 61.9443C366.659 59.2624 366.624 56.2335 366.624 52.8564V52.5H380.83ZM174.422 58.0791C174.422 60.5161 174.44 62.4833 174.475 63.9805C174.488 64.2494 174.509 64.5152 174.541 64.7783C174.685 65.9814 175.029 67.126 175.572 68.2119C176.826 70.7191 178.81 72.2676 181.526 72.8594C184.242 73.4167 187.794 73.3295 192.181 72.5986V76.7773C189.361 77.4048 186.574 77.6307 183.824 77.4561C181.073 77.317 178.619 76.6725 176.46 75.5234C174.301 74.3399 172.682 72.5646 171.602 70.1963C170.767 68.3509 170.296 66.4883 170.192 64.6084C170.087 62.6929 170.036 60.5163 170.036 58.0791V52.5H174.422V58.0791ZM28.8316 52.5V76.7773H24.4439V52.5H28.8316ZM60.7955 52.5V76.7773H56.4087V52.5H60.7955ZM80.8169 52.5V76.7773H76.4292V52.5H80.8169ZM217.331 76.7773H203.02V52.5H217.331V76.7773ZM251.28 76.7773H237.074V52.5H251.28V76.7773ZM285.229 76.7773H271.022V52.5H285.229V76.7773ZM424.947 76.7773H410.741V52.5H424.947V76.7773ZM462.959 59.4375L465.333 52.5H478.874L470.062 76.7773H455.856L447.044 52.5H460.585L462.959 59.4375ZM115.215 44.7119C115.457 44.8342 115.706 44.9542 115.96 45.0742C116.335 45.2439 116.728 45.4146 117.139 45.5859C117.345 45.6716 117.555 45.7577 117.77 45.8438C118.63 46.188 119.563 46.5349 120.571 46.8857C120.823 46.9734 121.079 47.0613 121.34 47.1494C123.429 47.8544 125.815 48.5733 128.496 49.3047C131.285 50.0634 133.702 50.7773 135.747 51.4434C133.702 50.7775 131.284 50.0642 128.495 49.3047C123.132 47.8419 118.954 46.4313 115.96 45.0742C115.705 44.9545 115.457 44.834 115.215 44.7119ZM80.8492 46.624C80.8526 46.4864 80.854 46.3484 80.858 46.21C80.8615 46.0882 80.8667 45.9661 80.8707 45.8438C80.8622 46.1053 80.8555 46.3654 80.8492 46.624ZM80.8882 45.3301C80.905 44.8792 80.9241 44.4242 80.9468 43.9648C80.9241 44.4241 80.9049 44.8792 80.8882 45.3301ZM127.765 44.6133C128.154 44.7165 128.552 44.82 128.958 44.9238C128.552 44.8199 128.154 44.7165 127.765 44.6133ZM128.808 18.8027C132.951 18.8027 136.677 19.499 139.985 20.8916C143.328 22.2498 146.009 24.1648 148.029 26.6377C150.083 29.0748 151.267 31.8942 151.581 35.0977L147.088 35.9336C146.427 31.9992 144.407 28.9003 141.03 26.6377C137.687 24.3395 133.509 23.1904 128.495 23.1904C123.794 23.1204 119.946 24.078 116.952 26.0625C113.992 28.047 112.512 30.6411 112.512 33.8447C112.512 35.6209 113.018 37.1524 114.027 38.4404C115.037 39.694 116.795 40.8432 119.302 41.8877L119.517 41.9766H111.087C111.694 42.5299 112.403 43.0648 113.215 43.5811L113.843 43.9648C112.764 43.331 111.845 42.6682 111.087 41.9766C110.538 41.4745 110.072 40.9577 109.692 40.4258C108.508 38.6849 107.917 36.561 107.917 34.0537C107.917 31.0592 108.805 28.4125 110.581 26.1143C112.357 23.8162 114.811 22.0235 117.945 20.7354C121.079 19.4462 124.699 18.8028 128.808 18.8027ZM80.9703 43.5254C80.994 43.0795 81.0201 42.6296 81.0494 42.1758C81.0199 42.6296 80.9941 43.0794 80.9703 43.5254ZM120.494 42.3594C121.011 42.5542 121.562 42.7471 122.145 42.9443C121.945 42.8768 121.748 42.8124 121.556 42.7451L120.494 42.3594ZM265.695 19.0117C272.136 19.0117 276.994 20.926 280.267 24.7559C283.575 28.5513 285.229 33.5318 285.229 39.6943V41.9766H270.973C270.764 38.9556 269.892 36.5584 268.359 34.7842C266.618 32.6952 264.198 31.6505 261.099 31.6504C259.115 31.6504 257.391 32.1208 255.928 33.0605C254.466 33.966 253.316 35.2548 252.481 36.9268C252.098 37.7079 251.808 38.5488 251.608 39.4482C251.431 40.2446 251.325 41.0872 251.292 41.9766H250.317L251.28 42.6182V42.6191L250.316 41.9766H237.024C236.815 38.9556 235.943 36.5584 234.409 34.7842C232.668 32.6954 230.248 31.6504 227.15 31.6504C224.19 31.6504 221.805 32.6781 219.995 34.7324C218.338 36.6169 217.453 39.0314 217.342 41.9766H203.02V20.3691H215.554V26.5498C217.191 24.5343 219.193 22.8755 221.561 21.5713C224.695 19.8649 228.194 19.0117 232.059 19.0117C236.481 19.0117 240.102 19.9522 242.922 21.832C245.278 23.3833 247.124 25.3606 248.461 27.7656C250.253 25.117 252.569 23.0332 255.406 21.5176C258.505 19.847 261.934 19.0118 265.695 19.0117ZM523.945 31.1289C519.105 31.129 515.536 32.6095 513.239 35.5684C511.94 37.246 511.014 39.387 510.46 41.9932H535.321C534.905 38.9412 534.091 36.5904 532.877 34.9414C531.066 32.3998 528.088 31.1289 523.945 31.1289ZM95.8589 19.7949C97.9828 19.6557 99.8631 19.8469 101.5 20.3691V24.5479C99.1668 24.0256 96.6948 23.939 94.0835 24.2871C91.4721 24.6005 89.0343 25.8014 86.771 27.8906C84.7863 29.7361 83.3762 31.8601 82.5406 34.2627C81.7397 36.6652 81.2518 39.1548 81.0777 41.7314C81.0721 41.8133 81.0665 41.895 81.0611 41.9766H76.4292V20.3691H80.5035V29.207C80.7807 28.7209 81.0759 28.2469 81.3912 27.7861C82.2965 26.463 83.1847 25.3835 84.0552 24.5479C85.5872 23.0507 87.3978 21.9193 89.4869 21.1533C91.6109 20.3525 93.7349 19.8994 95.8589 19.7949ZM60.7955 41.9766H56.4087V20.3691H60.7955V41.9766ZM45.44 3.96973H38.6509C35.3779 3.96973 32.9222 4.75245 31.2857 6.31934C29.6492 7.88619 28.8316 10.585 28.8316 14.415V20.3691H45.44V24.7568H28.8316V41.9766H24.4439V24.7568H14.2066V20.3691H24.4439V13.9971C24.4439 12.5348 24.5315 11.1942 24.7056 9.97559C24.9145 8.72219 25.2621 7.57283 25.7496 6.52832C26.237 5.48385 26.9163 4.49179 27.7867 3.55176C28.6223 2.68127 29.5455 1.98518 30.5552 1.46289C31.5998 0.940617 32.749 0.574149 34.0025 0.365234C35.2559 0.121564 36.6314 0 38.1285 0H45.44V3.96973ZM174.422 20.3691H192.181V24.7559H174.422V41.9766H170.036V24.7559H156.769V20.3691H170.036V4.70117H174.422V20.3691ZM323.173 18.8027C328.849 18.8027 333.828 20.0735 338.111 22.6152C342.429 25.157 345.788 28.6734 348.191 33.165C349.641 35.855 350.653 38.7924 351.228 41.9766H335.938C335.364 39.9048 334.487 38.0991 333.306 36.5605C331.043 33.5661 327.665 32.0693 323.173 32.0693C320.074 32.0694 317.532 32.7655 315.547 34.1582C313.563 35.5509 312.083 37.4835 311.108 39.9551C310.863 40.602 310.649 41.2756 310.467 41.9766H295.219C295.8 38.7407 296.831 35.7689 298.312 33.0605C300.749 28.5699 304.109 25.0698 308.392 22.5625C312.675 20.0564 317.602 18.8028 323.173 18.8027ZM380.83 20.3691H397.126V31.3369H380.83V41.9766H366.624V31.3369H357.013V20.3691H366.624V4.70117H380.83V20.3691ZM424.947 41.9766H410.741V20.3691H424.947V41.9766ZM456.984 41.9766H443.225L435.382 20.3691H449.588L456.984 41.9766ZM482.694 41.9766H468.935L476.33 20.3691H490.536L482.694 41.9766Z" fill="#ECE7D8"/>
<path d="M0 41.0022V53.5373H14.2064V41.0022H0Z" fill="#ECE7D8"/>
</svg>
